<?xml version="1.0" standalone="no"?>
<!DOCTYPE svg PUBLIC "-//W3C//DTD SVG 20010904//EN"
 "http://www.w3.org/TR/2001/REC-SVG-20010904/DTD/svg10.dtd">
<svg version="1.0" xmlns="http://www.w3.org/2000/svg"
 width="900.000000pt" height="900.000000pt" viewBox="0 0 900.000000 900.000000"
 preserveAspectRatio="xMidYMid meet">

<g transform="translate(0.000000,900.000000) scale(0.100000,-0.100000)"
fill="#000000" stroke="none">
<path d="M4230 8990 c-265 -18 -567 -64 -815 -126 -462 -115 -881 -293 -1309
-557 -427 -262 -879 -678 -1198 -1102 -477 -634 -761 -1335 -869 -2145 -98
-739 4 -1528 291 -2245 55 -138 181 -404 235 -495 253 -428 424 -657 717 -957
308 -317 575 -523 1028 -792 86 -51 376 -190 505 -242 401 -160 769 -250 1250
-305 208 -24 662 -24 870 0 598 69 1058 199 1544 439 218 107 303 156 531 307
370 246 729 579 1025 950 91 115 248 343 320 465 32 55 68 116 80 135 41 65
182 364 235 495 240 600 355 1271 321 1886 -17 331 -56 596 -127 882 -180 722
-528 1378 -1020 1921 -848 939 -2001 1465 -3264 1490 -124 3 -281 1 -350 -4z
m545 -310 c1097 -81 2097 -562 2814 -1354 653 -720 1019 -1577 1091 -2551 43
-592 -69 -1291 -295 -1840 -65 -159 -178 -396 -185 -388 -4 4 -23 64 -44 133
-20 69 -57 190 -81 270 -24 80 -65 215 -90 300 -26 85 -66 220 -90 300 -24 80
-64 213 -89 295 -25 83 -65 218 -90 300 -25 83 -65 218 -90 300 -50 166 -126
419 -187 625 -23 74 -58 191 -79 260 -21 69 -52 176 -70 238 l-33 112 -71 0
-71 1 -152 183 -152 183 -183 6 c-127 4 -200 11 -238 22 -92 28 -227 99 -380
199 -283 187 -462 274 -620 302 -99 18 -270 17 -364 -1 -183 -34 -377 -167
-486 -331 l-34 -50 -34 50 c-84 125 -213 230 -352 289 -116 49 -195 61 -359
54 -235 -10 -380 -67 -711 -282 -201 -130 -222 -142 -302 -180 -121 -55 -174
-66 -371 -72 l-178 -6 -54 -66 c-29 -36 -102 -124 -161 -196 l-109 -130 -65
-5 -64 -5 -29 -95 c-16 -52 -46 -151 -67 -220 -21 -69 -62 -201 -90 -295 -76
-249 -122 -399 -180 -590 -28 -93 -72 -237 -97 -320 -25 -82 -65 -213 -88
-290 -58 -186 -113 -366 -170 -555 -116 -383 -149 -492 -181 -590 -19 -58 -34
-111 -34 -118 0 -9 336 -12 1641 -12 l1641 0 51 -46 c95 -85 207 -124 362
-124 149 0 258 35 334 107 l39 38 1083 -6 c596 -4 1339 -7 1652 -8 469 -1 567
-3 567 -14 0 -23 -153 -273 -254 -417 -311 -440 -718 -829 -1166 -1117 -559
-358 -1153 -563 -1875 -645 -143 -16 -627 -16 -770 0 -456 52 -837 146 -1200
295 -1142 469 -2015 1409 -2398 2582 -161 491 -232 1060 -197 1565 86 1221
670 2312 1635 3056 554 427 1235 715 1925 814 340 49 607 61 895 40z m-766
-2135 c105 -25 216 -89 301 -175 42 -41 92 -103 113 -137 l37 -61 -2 -1564 -3
-1563 -20 34 c-80 135 -198 238 -338 296 -116 47 -215 59 -388 45 -289 -23
-582 -100 -979 -255 -370 -145 -616 -197 -935 -198 -139 0 -318 17 -344 32 -7
5 -3 35 13 96 49 190 99 375 135 510 21 77 57 208 79 290 22 83 61 224 85 315
25 91 70 262 101 380 32 118 72 269 91 335 18 66 58 217 90 335 31 118 74 278
95 355 21 77 54 201 75 276 l37 137 76 -5 c109 -7 246 11 354 47 89 29 190 85
403 222 178 114 415 220 560 251 93 20 282 21 364 2z m1426 -15 c192 -61 354
-140 583 -286 90 -58 184 -115 210 -128 129 -65 303 -100 462 -94 l85 3 22
-80 c23 -80 87 -318 163 -605 23 -85 64 -238 91 -340 28 -102 68 -252 90 -335
22 -82 60 -222 84 -310 24 -88 67 -248 95 -355 71 -265 133 -497 179 -665 77
-281 86 -325 71 -335 -28 -17 -190 -33 -340 -33 -316 1 -567 54 -935 198 -474
187 -931 285 -1188 256 -96 -11 -218 -54 -293 -104 -67 -44 -162 -141 -204
-210 -19 -31 -37 -56 -40 -57 -3 0 -3 705 0 1567 l5 1568 29 50 c44 74 162
191 239 236 129 76 188 89 377 85 115 -3 159 -8 215 -26z m1819 -987 c15 -54
45 -154 66 -223 21 -69 59 -195 84 -280 26 -85 67 -221 91 -303 44 -146 94
-310 179 -595 24 -81 65 -216 90 -300 25 -83 66 -220 91 -302 24 -83 65 -216
89 -298 25 -81 65 -217 91 -302 56 -190 104 -346 112 -367 5 -13 -121 -14
-1183 -9 -654 3 -1399 9 -1656 12 l-466 6 -7 -21 c-10 -31 -91 -89 -149 -106
-81 -25 -228 -30 -315 -11 -84 18 -167 63 -214 116 l-31 35 -1631 5 -1631 5
24 80 c32 106 113 375 168 555 96 312 135 440 173 565 65 215 215 708 281 925
21 69 60 195 86 280 25 85 66 218 89 295 24 77 54 176 67 220 l24 80 37 3 c20
2 37 -1 37 -6 0 -5 -13 -54 -29 -108 -16 -54 -53 -180 -81 -279 -28 -99 -69
-238 -89 -310 -81 -274 -115 -394 -146 -505 -18 -63 -59 -203 -90 -310 -31
-107 -64 -220 -72 -250 -8 -30 -31 -113 -53 -185 -21 -71 -62 -211 -90 -310
-28 -99 -69 -238 -90 -310 -21 -71 -48 -166 -60 -210 -11 -44 -23 -87 -25 -95
-4 -13 168 -15 1518 -12 l1523 2 18 34 c10 19 41 59 70 88 159 167 359 209
553 117 68 -32 174 -128 217 -196 l26 -43 1520 0 c836 0 1520 3 1520 6 0 3
-11 43 -24 88 -14 44 -48 162 -76 261 -28 99 -72 250 -97 335 -68 235 -106
367 -163 565 -28 99 -71 248 -95 330 -24 83 -67 231 -95 330 -28 99 -65 223
-80 275 -16 53 -40 136 -54 185 -24 88 -136 478 -150 523 -7 20 -4 22 31 22
l39 0 28 -97z"/>
<path d="M3877 6185 c-17 -17 -33 -200 -24 -268 3 -23 22 -84 40 -135 19 -50
32 -94 28 -96 -3 -2 -37 0 -76 5 -47 6 -71 5 -76 -2 -9 -15 -19 -173 -11 -180
4 -4 25 -10 48 -14 l41 -6 9 43 9 43 75 -4 c55 -2 88 -10 125 -28 58 -30 61
-33 69 -82 3 -23 18 -49 40 -70 40 -39 41 -38 51 81 l7 77 -80 40 c-69 35 -82
46 -90 73 -6 18 -24 66 -42 107 -17 40 -30 75 -27 77 2 2 30 -5 62 -16 65 -22
75 -18 75 32 0 36 11 41 54 23 19 -8 38 -15 41 -15 3 0 5 24 5 54 0 53 -1 55
-40 77 -26 15 -43 32 -46 49 -9 43 -19 54 -99 103 -84 50 -140 61 -168 32z
m130 -111 l43 -17 0 -64 c0 -64 0 -65 -25 -59 -73 19 -75 20 -75 91 0 36 3 65
7 65 4 0 27 -7 50 -16z"/>
<path d="M3211 6020 c-18 -29 -30 -55 -27 -57 3 -3 58 -13 122 -22 90 -13 119
-21 130 -36 17 -23 18 -35 3 -35 -6 0 -61 -22 -123 -49 -61 -26 -146 -63 -188
-81 -61 -26 -78 -38 -78 -54 0 -11 -16 -121 -36 -244 -19 -123 -34 -227 -32
-232 2 -5 74 26 161 68 l157 77 0 134 c0 151 6 146 -86 85 -30 -20 -56 -35
-58 -33 -2 2 -6 28 -9 56 -6 51 -5 54 23 68 37 19 272 115 282 115 4 0 6 -12
3 -27 -2 -16 -7 -104 -10 -196 l-6 -168 61 41 60 41 0 253 0 254 -82 25 c-46
14 -111 33 -145 41 -34 9 -69 19 -76 22 -10 3 -26 -13 -46 -46z m9 -590 c0
-49 -1 -50 -52 -85 -72 -48 -78 -46 -71 18 3 28 9 58 13 66 7 13 81 49 103 50
4 1 7 -21 7 -49z"/>
<path d="M2770 5764 c-30 -14 -86 -36 -125 -49 -72 -24 -287 -75 -317 -75 -24
0 -27 -8 -43 -117 -29 -190 -86 -447 -121 -537 -5 -14 6 -16 86 -16 158 0 323
34 451 92 78 35 66 -11 104 393 14 149 27 285 30 303 7 38 6 38 -65 6z m-25
-186 c-4 -29 -16 -134 -28 -233 l-22 -180 -68 -33 c-38 -18 -74 -31 -81 -29
-10 4 -9 35 5 143 35 290 42 336 53 338 6 2 38 12 71 23 33 11 64 21 68 22 5
0 6 -23 2 -51z m-245 -174 c-30 -227 -46 -333 -52 -339 -2 -3 -39 -8 -81 -11
-66 -6 -77 -5 -83 10 -3 9 8 80 24 159 26 119 62 301 62 312 0 2 24 6 53 10
28 4 61 11 72 15 11 4 21 7 23 5 1 -1 -7 -74 -18 -161z"/>
<path d="M3632 4910 c-63 -9 -158 -44 -190 -68 -22 -17 -22 -24 -37 -377 -8
-198 -15 -372 -15 -386 l0 -27 78 21 c64 18 105 22 242 22 159 0 167 -1 235
-29 39 -16 85 -39 103 -53 l32 -24 0 167 c0 189 -7 180 90 114 l60 -41 0 88 0
88 -57 34 c-99 58 -93 43 -93 226 l0 163 -50 21 c-117 50 -294 77 -398 61z
m78 -185 c9 -11 11 -58 6 -192 -4 -98 -9 -203 -12 -233 l-5 -56 -67 0 c-37 0
-77 -6 -90 -13 l-22 -12 2 247 3 247 35 13 c50 18 135 18 150 -1z m230 -7 l45
-23 3 -273 2 -274 -27 20 c-33 23 -136 62 -163 62 -23 0 -23 -22 -10 273 5
119 12 222 15 227 11 18 89 11 135 -12z"/>
<path d="M2726 4528 c-47 -26 -55 -34 -40 -39 11 -4 70 -27 132 -51 90 -34
116 -48 123 -67 22 -56 16 -61 -170 -122 -95 -31 -178 -63 -182 -71 -5 -7 -9
-27 -9 -44 0 -17 -11 -118 -25 -224 -14 -106 -25 -199 -23 -206 2 -9 22 4 55
34 l52 47 27 156 27 155 139 56 138 55 0 -36 c0 -20 -5 -98 -11 -175 -5 -76
-8 -140 -6 -143 3 -2 29 17 58 42 l54 46 20 241 20 241 -75 34 c-96 45 -233
103 -240 103 -3 0 -31 -15 -64 -32z"/>
<path d="M2275 4399 c-38 -11 -114 -22 -167 -26 l-97 -6 -15 -51 c-8 -28 -30
-115 -50 -193 l-36 -142 85 -113 c75 -100 84 -118 85 -155 l0 -43 -115 0 -115
0 0 -59 0 -59 63 -7 c67 -7 197 12 258 38 35 14 37 17 44 81 l7 66 -86 108
c-71 89 -86 113 -86 142 0 19 4 40 8 47 4 6 50 14 108 18 56 4 106 10 112 14
10 6 50 154 72 266 6 33 14 68 16 78 6 21 -1 21 -91 -4z m-65 -116 c0 -4 -8
-43 -17 -85 l-16 -78 -59 0 c-52 0 -59 2 -55 18 3 9 8 35 11 57 16 101 11 95
77 95 32 0 59 -3 59 -7z"/>
<path d="M5363 6153 c-23 -4 -23 -6 -23 -179 l0 -174 45 -81 c25 -45 44 -83
42 -85 -2 -2 -27 3 -57 11 -84 23 -80 27 -80 -83 l0 -98 40 -11 40 -10 0 53
c0 30 4 54 9 54 5 0 79 -34 165 -75 l157 -74 -3 107 -3 106 -46 17 -46 17 5
-54 c2 -30 0 -54 -5 -54 -11 0 -56 30 -65 44 -17 25 -69 187 -66 206 3 18 8
17 71 -21 38 -23 70 -39 72 -37 2 1 7 78 11 170 l7 166 -28 26 c-44 41 -177
73 -242 59z m148 -118 c30 -16 30 -16 27 -93 l-3 -77 -35 3 c-60 4 -60 5 -60
97 0 79 1 85 20 85 12 0 34 -7 51 -15z"/>
<path d="M4834 6128 c3 -13 6 -62 6 -109 l0 -87 37 9 c21 4 39 6 41 4 2 -2 4
-44 5 -93 l2 -90 -63 -27 c-117 -51 -112 -41 -112 -231 0 -90 2 -164 5 -164 2
0 20 8 40 17 l35 17 0 123 0 124 35 15 c19 7 37 14 40 14 3 0 5 -43 5 -96 l0
-96 31 6 c17 3 35 6 40 6 5 0 9 53 9 118 0 125 6 142 46 142 52 0 54 -5 54
-115 l0 -102 45 10 45 10 -2 156 -3 156 -29 -3 c-16 -2 -46 -12 -67 -23 -21
-10 -41 -19 -44 -19 -4 0 -3 61 1 135 l7 135 -42 0 -41 0 0 40 0 40 -66 0
c-64 0 -66 -1 -60 -22z"/>
<path d="M5763 5938 c3 -35 14 -186 24 -337 l17 -274 65 -48 c74 -55 221 -129
299 -153 29 -8 79 -18 112 -22 54 -6 60 -5 60 12 0 11 -11 150 -25 309 -14
160 -25 295 -25 301 0 5 -37 21 -82 34 -105 30 -237 95 -357 177 l-94 64 6
-63z m202 -159 c32 -18 55 -38 55 -47 0 -10 7 -98 15 -197 18 -217 18 -255 4
-255 -6 0 -37 12 -69 26 l-57 25 -6 77 c-16 196 -20 402 -8 402 6 0 36 -14 66
-31z m241 -104 c5 0 45 -448 40 -452 -6 -6 -107 26 -120 37 -8 8 -35 319 -36
417 l0 53 58 -27 c31 -15 58 -28 58 -28z"/>
<path d="M6460 5580 l0 -100 45 -11 45 -11 0 -70 0 -70 -55 7 -55 6 0 -40 c0
-45 20 -71 54 -71 13 0 37 -3 54 -6 l31 -6 3 -107 3 -106 58 -3 57 -3 0 96 0
95 60 0 60 0 0 65 0 65 -70 0 -70 0 0 100 c0 72 -4 102 -12 105 -7 2 -39 11
-70 20 -56 15 -58 17 -58 49 0 18 -3 48 -6 65 -6 27 -10 31 -40 31 l-34 0 0
-100z"/>
<path d="M5640 4694 c67 -66 131 -125 141 -132 27 -18 28 -97 2 -89 -30 9
-195 73 -246 96 -27 12 -53 21 -58 21 -5 0 -9 -109 -9 -259 l0 -259 43 -7 c23
-3 50 -9 60 -11 16 -5 17 9 17 195 0 111 1 201 3 201 8 0 283 -112 289 -118 6
-6 37 -304 38 -359 0 -10 119 -57 126 -50 2 2 -10 93 -27 202 -16 110 -35 236
-41 280 l-11 80 -130 147 c-71 81 -136 149 -145 152 -10 2 -44 7 -77 11 -33 3
-69 9 -79 12 -11 3 36 -48 104 -113z"/>
<path d="M4778 4700 l-48 -25 0 -118 0 -117 55 36 c30 21 57 35 60 33 2 -2
-18 -54 -45 -114 l-49 -110 -1 -212 c0 -117 2 -213 5 -213 3 0 24 14 48 31
l42 30 5 152 5 151 70 39 c39 22 92 53 119 69 30 18 53 25 58 20 5 -5 8 -70 6
-146 -2 -75 -1 -136 1 -136 3 0 35 10 73 22 l69 22 -1 188 c-1 103 -5 188 -8
188 -4 0 -65 -16 -137 -34 -71 -19 -133 -32 -137 -30 -3 2 -2 19 3 37 9 31 13
187 5 187 -2 0 -28 -11 -58 -25 -71 -33 -78 -32 -79 13 -1 20 -4 48 -8 62 l-6
25 -47 -25z"/>
<path d="M6196 4481 c4 -25 21 -147 39 -271 19 -124 39 -270 46 -325 6 -55 15
-109 19 -120 22 -59 466 -185 651 -185 l56 0 -29 172 c-16 94 -25 175 -21 179
4 4 31 3 58 -1 28 -5 65 -9 83 -9 l32 -1 0 65 0 65 -100 0 -99 0 -5 33 c-3 17
-11 79 -16 137 -17 174 -1 156 -143 163 -125 7 -302 34 -392 62 -27 8 -80 30
-117 49 l-67 34 5 -47z m238 -159 c37 -6 70 -13 73 -16 4 -4 45 -314 58 -448
7 -65 6 -68 -14 -68 -26 0 -141 38 -158 51 -6 6 -14 27 -17 47 -16 97 -55 446
-50 454 3 4 13 4 22 -1 9 -5 48 -14 86 -19z m365 -97 c6 -33 19 -123 31 -200
11 -77 26 -176 34 -220 8 -45 11 -84 6 -89 -5 -5 -35 -4 -71 3 -109 22 -104
17 -118 123 -9 64 -69 443 -71 443 0 0 40 0 89 0 l90 0 10 -60z"/>
<path d="M4369 2866 c-65 -17 -136 -62 -154 -96 -30 -57 -11 -128 43 -166 34
-23 126 -52 190 -59 105 -12 251 33 306 94 10 11 21 41 24 66 4 44 3 48 -41
90 -79 75 -238 106 -368 71z"/>
</g>
</svg>
